<?xml version="1.0" standalone="no"?>
<!DOCTYPE svg PUBLIC "-//W3C//DTD SVG 20010904//EN"
 "http://www.w3.org/TR/2001/REC-SVG-20010904/DTD/svg10.dtd">
<svg version="1.0" xmlns="http://www.w3.org/2000/svg"
 width="500.000000pt" height="500.000000pt" viewBox="0 0 500.000000 500.000000"
 preserveAspectRatio="xMidYMid meet">

<g transform="translate(0.000000,500.000000) scale(0.100000,-0.100000)"
fill="#000000" stroke="none">
<path d="M3577 4001 c-105 -108 -105 -117 6 -228 71 -71 88 -83 117 -83 29 0
46 12 117 83 111 111 111 120 6 228 -74 76 -78 79 -123 79 -45 0 -49 -3 -123
-79z"/>
<path d="M2076 3264 c-28 -9 -68 -28 -90 -44 -23 -16 -244 -232 -492 -482
-510 -512 -489 -485 -489 -638 1 -141 -8 -130 513 -651 356 -355 468 -461 507
-480 42 -20 65 -24 145 -24 148 0 143 -3 519 371 372 369 344 318 235 427 -75
76 -121 99 -194 99 -95 0 -139 -31 -320 -226 -75 -80 -140 -110 -240 -110
-115 -1 -136 13 -366 246 -225 228 -234 241 -234 373 0 111 19 140 237 356
116 116 205 195 233 209 62 32 170 38 241 15 55 -19 76 -37 250 -221 79 -85
142 -124 197 -124 69 0 151 53 238 156 l48 55 -320 320 c-270 270 -329 325
-381 351 -76 37 -164 46 -237 22z"/>
<path d="M3025 3260 c-11 -4 -76 -65 -144 -134 l-124 -126 6 -41 c7 -51 30
-76 162 -176 166 -126 205 -170 205 -230 0 -42 -33 -89 -134 -189 -104 -104
-158 -134 -251 -142 -56 -4 -71 -1 -130 26 -67 32 -124 83 -275 248 -54 59
-73 73 -113 83 -93 23 -109 13 -328 -207 -177 -177 -197 -201 -204 -238 -14
-91 0 -112 208 -321 175 -174 196 -192 235 -198 97 -16 114 -6 262 145 157
160 193 181 310 188 48 3 92 0 116 -8 69 -23 150 -87 240 -190 104 -119 148
-146 226 -137 31 4 66 17 88 32 50 35 352 350 367 384 18 39 15 107 -6 150
-11 20 -133 149 -275 288 -161 158 -257 260 -262 277 -9 37 15 69 77 100 65
32 133 34 189 6 22 -11 74 -55 117 -98 82 -82 114 -98 162 -80 32 11 237 212
258 252 28 54 13 81 -120 213 -164 165 -187 168 -295 44 -68 -78 -107 -107
-162 -122 -79 -21 -121 -2 -220 100 -108 112 -131 124 -185 101z"/>
</g>
</svg>
